<svg width="52" height="56" viewBox="0 0 52 56" fill="none" xmlns="http://www.w3.org/2000/svg">
<path d="M50.6996 44.5479L50.6654 44.5762L47.254 47.3899L47.2482 47.3947L47.2423 47.3992C47.2485 47.3944 46.7128 47.8149 46.7128 48.5896V48.5912V48.5929V48.5946V48.5963V48.5979V48.5997V48.6014V48.6031V48.6049V48.6066V48.6084V48.6101V48.6119V48.6137V48.6155V48.6173V48.6192V48.621V48.6229V48.6247V48.6266V48.6285V48.6303V48.6322V48.6341V48.6361V48.638V48.6399V48.6419V48.6438V48.6458V48.6478V48.6497V48.6517V48.6538V48.6558V48.6578V48.6598V48.6619V48.6639V48.666V48.668V48.6701V48.6722V48.6743V48.6764V48.6785V48.6807V48.6828V48.6849V48.6871V48.6893V48.6914V48.6936V48.6958V48.698V48.7002V48.7024V48.7046V48.7069V48.7091V48.7114V48.7136V48.7159V48.7182V48.7204V48.7227V48.725V48.7273V48.7297V48.732V48.7343V48.7367V48.739V48.7414V48.7437V48.7461V48.7485V48.7509V48.7533V48.7557V48.7581V48.7605V48.7629V48.7654V48.7678V48.7703V48.7727V48.7752V48.7777V48.7801V48.7826V48.7851V48.7876V48.7901V48.7926V48.7952V48.7977V48.8002V48.8028V48.8053V48.8079V48.8105V48.813V48.8156V48.8182V48.8208V48.8234V48.826V48.8286V48.8312V48.8339V48.8365V48.8391V48.8418V48.8444V48.8471V48.8498V48.8524V48.8551V48.8578V48.8605V48.8632V48.8659V48.8686V48.8713V48.874V48.8768V48.8795V48.8822V48.885V48.8877V48.8905V48.8932V48.896V48.8988V48.9016V48.9044V48.9071V48.9099V48.9127V48.9156V48.9184V48.9212V48.924V48.9268V48.9297V48.9325V48.9354V48.9382V48.9411V48.9439V48.9468V48.9496V48.9525V48.9554V48.9583V48.9612V48.9641V48.967V48.9699V48.9728V48.9757V48.9786V48.9815V48.9845V48.9874V48.9903V48.9933V48.9962V48.9991V49.0021V49.0051V49.008V49.011V49.0139V49.0169V49.0199V49.0229V49.0259V49.0288V49.0318V49.0348V49.0378V49.0408V49.0438V49.0469V49.0499V49.0529V49.0559V49.0589V49.062V49.065V49.068V49.0711V49.0741V49.0772V49.0802V49.0833V49.0863V49.0894V49.0924V49.0955V49.0986V49.1016V49.1047V49.1078V49.1109V49.114V49.117V49.1201V49.1232V49.1263V49.1294V49.1325V49.1356V49.1387V49.1418V49.1449V49.148V49.1511V49.1543V49.1574V49.1605V49.1636V49.1667V49.1699V49.173V49.1761V49.1793V49.1824V49.1855V49.1887V49.1918V49.195V49.1981V49.2012V49.2044V49.2075V49.2107V49.2138V49.217V49.2201V49.2233V49.2265V49.2296V49.2328V49.2359V49.2391V49.2423V49.2454V49.2486V49.2518V49.2549V49.2581V49.2613V49.2645V49.2676V49.2708V49.274V49.2771V49.2803V49.2835V49.2867V49.2899V49.293V49.2962V49.2994V49.3026V49.3057V49.3089V49.3121V49.3153V49.3185V49.3217V49.3248V49.328V49.3312V49.3344V49.3376V49.3408V49.3439V49.3471V49.3503V49.3535V49.3567V49.3598V49.363V49.3662V49.3694V49.3726V49.3757V49.3789V49.3821V49.3853V49.3885V49.3916V49.3948V49.398V49.4012V49.4043V49.4075V49.4107V49.4139V49.417V49.4202V49.4234V49.4265V49.4297V49.4329V49.436V49.4392V49.4424V49.4455V49.4487V49.4518V49.455V49.4582V49.4613V49.4645V49.4676V49.4708V49.4739V49.4771V49.4802V49.4833V49.4865V49.4896V49.4928V49.4959V49.499V49.5022V49.5053V49.5084V49.5115V49.5147V49.5178V49.5209V49.524V49.5271V49.5303V49.5334V49.5365V49.5396V49.5427V49.5458V49.5489V49.552V49.5551V49.5581V49.5612V49.5643V49.5674V49.5705V49.5736V49.5766V49.5797V49.5828V49.5858V49.5889V49.5919V49.595V49.598V49.6011V49.6041V49.6072V49.6102V49.6133V49.6163V49.6193V49.6223V49.6254V49.6284V49.6314V49.6344V49.6374V49.6404V49.6434V49.6464V49.6494V49.6524V49.6553V49.6583V49.6613V49.6643V49.6672V49.6702V49.6732V49.6761V49.6791V49.682V49.685V49.6879V49.6908V49.6938V49.6967V49.6996V49.7025V49.7054V49.7083V49.7112V49.7141V49.717V49.7199V49.7228V49.7257V49.7285V49.7314V49.7343V49.7371V49.74V49.7428V49.7457V49.7485V49.7513V49.7541V49.757V49.7598V49.7626V49.7654V49.7682V49.771V49.7738V49.7766V49.7793V49.7821V49.7849V49.7876V49.7904V49.7931V49.7959V49.7986V49.8013V49.8041V49.8068V49.8095V49.8122V49.8149V49.8176V49.8203V49.823V49.8256V49.8283V49.831V49.8336V49.8363V49.8389V49.8416V49.8442V49.8468V49.8494V49.8521V49.8547V49.8573V49.8598V49.8624V49.865V49.8676V49.8701V49.8727V49.8752V49.8778V49.8803V49.8828V49.8854V49.8879V49.8904V49.8929V49.8954V49.8979V49.9003V49.9028V49.9053V49.9077V49.9102V49.9126V49.915V49.9175V49.9199V49.9223V49.9247V49.9271V49.9295V49.9318V49.9342V49.9366V49.9389V49.9413V49.9436V49.9459V49.9483V49.9506V49.9529V49.9552V49.9575V49.9597V49.962V49.9643V49.9665V49.9688V49.971V49.9732V49.9755V49.9777V49.9799V49.9821V49.9842V49.9864V49.9886V49.9907V49.9929V49.995V50.495H46.2128H4.94528H4.44528V49.995V6.02385V5.52385H4.94528H46.2128H46.7128V6.02385V6.0239V6.02395V6.02403V6.02413V6.02426V6.0244V6.02457V6.02476V6.02497V6.02521V6.02546V6.02574V6.02604V6.02636V6.02671V6.02707V6.02746V6.02786V6.02829V6.02874V6.02921V6.02971V6.03022V6.03075V6.03131V6.03189V6.03248V6.0331V6.03374V6.0344V6.03507V6.03577V6.03649V6.03723V6.03799V6.03877V6.03957V6.04039V6.04123V6.04209V6.04297V6.04387V6.04479V6.04573V6.04669V6.04766V6.04866V6.04967V6.05071V6.05176V6.05284V6.05393V6.05504V6.05617V6.05732V6.05848V6.05967V6.06087V6.06209V6.06333V6.06459V6.06587V6.06716V6.06848V6.06981V6.07116V6.07252V6.07391V6.07531V6.07673V6.07817V6.07962V6.0811V6.08259V6.08409V6.08562V6.08716V6.08872V6.09029V6.09188V6.09349V6.09512V6.09676V6.09842V6.1001V6.10179V6.1035V6.10522V6.10696V6.10872V6.11049V6.11228V6.11409V6.11591V6.11775V6.1196V6.12147V6.12335V6.12525V6.12717V6.1291V6.13104V6.133V6.13498V6.13697V6.13898V6.141V6.14304V6.14509V6.14715V6.14923V6.15133V6.15344V6.15556V6.1577V6.15985V6.16202V6.1642V6.16639V6.1686V6.17083V6.17306V6.17531V6.17758V6.17986V6.18215V6.18445V6.18677V6.1891V6.19145V6.19381V6.19618V6.19856V6.20096V6.20337V6.20579V6.20823V6.21068V6.21314V6.21561V6.2181V6.2206V6.22311V6.22563V6.22817V6.23072V6.23328V6.23585V6.23843V6.24103V6.24363V6.24625V6.24888V6.25153V6.25418V6.25684V6.25952V6.26221V6.26491V6.26762V6.27034V6.27307V6.27581V6.27857V6.28133V6.28411V6.28689V6.28969V6.29249V6.29531V6.29814V6.30098V6.30382V6.30668V6.30955V6.31243V6.31532V6.31821V6.32112V6.32404V6.32696V6.3299V6.33285V6.3358V6.33876V6.34174V6.34472V6.34771V6.35071V6.35372V6.35674V6.35977V6.3628V6.36585V6.3689V6.37196V6.37503V6.37811V6.3812V6.38429V6.3874V6.39051V6.39363V6.39676V6.39989V6.40303V6.40618V6.40934V6.41251V6.41568V6.41886V6.42205V6.42525V6.42845V6.43166V6.43487V6.4381V6.44133V6.44457V6.44781V6.45106V6.45432V6.45758V6.46085V6.46413V6.46741V6.4707V6.474V6.4773V6.48061V6.48392V6.48724V6.49057V6.4939V6.49724V6.50058V6.50393V6.50728V6.51064V6.514V6.51737V6.52075V6.52413V6.52751V6.5309V6.5343V6.5377V6.5411V6.54451V6.54792V6.55134V6.55476V6.55819V6.56162V6.56506V6.5685V6.57194V6.57539V6.57884V6.5823V6.58576V6.58922V6.59269V6.59616V6.59963V6.60311V6.60659V6.61007V6.61356V6.61705V6.62054V6.62404V6.62754V6.63104V6.63455V6.63805V6.64156V6.64508V6.64859V6.65211V6.65563V6.65915V6.66268V6.66621V6.66973V6.67327V6.6768V6.68033V6.68387V6.68741V6.69095V6.69449V6.69803V6.70158V6.70512V6.70867V6.71222V6.71577V6.71932V6.72287V6.72642V6.72997V6.73353V6.73708V6.74063V6.74419V6.74775V6.7513V6.75486V6.75842V6.76197V6.76553V6.76909V6.77265V6.7762V6.77976V6.78332V6.78687V6.79043V6.79399V6.79754V6.80109V6.80465V6.8082V6.81175V6.8153V6.81886V6.8224V6.82595V6.8295V6.83305V6.83659V6.84013V6.84367V6.84721V6.85075V6.85429V6.85782V6.86136V6.86489V6.86842V6.87194V6.87547V6.87899V6.88251V6.88603V6.88954V6.89306V6.89657V6.90008V6.90358V6.90708V6.91058V6.91408V6.91757V6.92106V6.92455V6.92804V6.93152V6.93499V6.93847V6.94194V6.94541V6.94887V6.95233V6.95578V6.95924V6.96268V6.96613V6.96957V6.973V6.97643V6.97986V6.98328V6.9867V6.99012V6.99353V6.99693V7.00033V7.00373V7.00712V7.0105V7.01388V7.01726V7.02063V7.02399V7.02735V7.0307V7.03405V7.0374V7.04073V7.04406V7.04739V7.05071V7.05402V7.05733V7.06063V7.06393V7.06722V7.0705V7.07378V7.07705V7.08032V7.08357V7.08683V7.09007V7.09331V7.09654V7.09976V7.10298V7.10619V7.10939V7.11259V7.11578V7.11896V7.12213V7.1253V7.12846V7.13161V7.13475V7.13789V7.14101V7.14413V7.14724V7.15035V7.15344V7.15653V7.15961V7.16268V7.16574V7.1688V7.17184V7.17488V7.1779V7.18092V7.18393V7.18693V7.18993V7.19291V7.19588V7.19885V7.2018V7.20475V7.20769V7.21061V7.21353V7.21644V7.21934V7.22222V7.2251V7.22797V7.23083V7.23368V7.23652V7.23934V7.24216V7.24497V7.24777V7.25055V7.25333V7.25609V7.25885V7.26159V7.26432V7.26704V7.26975V7.27245V7.27514V7.27782V7.28048V7.28314V7.28578V7.28841V7.29103V7.29364V7.29624V7.29882V7.30139V7.30395V7.3065V7.30904V7.31156V7.31407V7.31657V7.31906V7.32153V7.324V7.32645V7.32888V7.33131V7.33372V7.33611V7.3385V7.34087V7.34323V7.34558V7.34791V7.35023V7.35253V7.35483V7.3571V7.35937V7.36162V7.36386V7.36608V7.36829V7.37049V7.37267V7.37484V7.37699V7.37913C46.7128 7.65109 46.8265 7.90272 46.9672 8.10647C47.099 8.29716 47.2326 8.41402 47.2421 8.42231C47.2423 8.42243 47.2424 8.42252 47.2425 8.4226C47.2427 8.42282 47.2428 8.42284 47.2425 8.42266L50.673 11.2525L50.8209 11.2655C50.8223 11.249 50.8236 11.2316 50.8246 11.2132L50.6537 11.2038C50.6552 11.1761 50.6564 11.1506 50.6572 11.1253C50.6577 11.1064 50.6581 11.0876 50.6581 11.0681H50.8286V4.62842C50.8286 2.22958 49.2522 0.5 47.3976 0.5H4.10156C4.10154 0.5 4.10153 0.5 4.10151 0.5C2.17117 0.500199 0.5 2.29417 0.5 4.62842V50.9881C0.5 53.409 2.22736 55.3167 4.10084 55.3173H4.10087H4.1009L50.6996 44.5479ZM50.6996 44.5479L50.7077 44.5384C50.7077 44.5384 50.7077 44.5384 50.7077 44.5384C50.7118 44.5349 50.7166 44.5311 50.7219 44.527C50.7299 44.5208 50.7391 44.514 50.7492 44.5072C50.7789 44.5892 50.8133 44.7388 50.8247 44.9934M50.6996 44.5479L50.8247 44.9934M50.8247 44.9934L50.6543 45.0007L50.6543 45.0013M50.8247 44.9934L50.6543 45.0013M50.6543 45.0013L50.6551 45.018L50.6551 45.0184L50.6554 45.0236M50.6543 45.0013L50.6554 45.0236M50.6554 45.0236L50.6554 45.0246L50.8257 45.0176C50.8262 45.0297 50.8266 45.0421 50.8269 45.0548L50.6563 45.0592C50.6573 45.0997 50.6581 45.1371 50.6581 45.1761H50.8286V50.9883C50.8286 53.4756 49.1982 55.317 47.3984 55.3173M50.6554 45.0236L47.3984 55.3173M47.3984 55.3173H47.3983H47.3983H47.3983H47.3982H47.3982H47.3982H47.3982H47.3981H47.3981H47.3981H47.398H47.398H47.398H47.3979H47.3979H47.3979H47.3979H47.3978H47.3978H47.3978H47.3977H47.3977H47.3977H47.3976H4.10151H4.10148M47.3984 55.3173H4.10148M4.10148 55.3173H4.10145M4.10148 55.3173H4.10145M4.10145 55.3173H4.10142M4.10145 55.3173H4.10142M4.10142 55.3173H4.1014M4.10142 55.3173H4.1014M4.1014 55.3173H4.10137M4.1014 55.3173H4.10137M4.10137 55.3173H4.10134M4.10137 55.3173H4.10134M4.10134 55.3173H4.10131M4.10134 55.3173H4.10131M4.10131 55.3173H4.10128M4.10131 55.3173H4.10128M4.10128 55.3173H4.10125M4.10128 55.3173H4.10125M4.10125 55.3173H4.10122M4.10125 55.3173H4.10122M4.10122 55.3173H4.10119M4.10122 55.3173H4.10119M4.10119 55.3173H4.10116M4.10119 55.3173H4.10116M4.10116 55.3173H4.10113M4.10116 55.3173H4.10113M4.10113 55.3173H4.10111M4.10113 55.3173H4.10111M4.10111 55.3173H4.10108M4.10111 55.3173H4.10108M4.10108 55.3173H4.10105M4.10108 55.3173H4.10105M4.10105 55.3173H4.10102M4.10105 55.3173H4.10102M4.10102 55.3173H4.10099H4.10102ZM50.809 11.3647L50.7193 11.2906L50.8175 11.3008C50.8149 11.3243 50.8121 11.3455 50.809 11.3647Z" fill="#27569C" stroke="black"/>
</svg>
