<svg width="37" height="27" viewBox="0 0 37 27" fill="none" xmlns="http://www.w3.org/2000/svg">
<path d="M35.4836 11.8979L21.4287 0.303983C21.1878 0.10521 20.9641 0 20.7042 0C20.1402 0 19.6106 0.504364 19.6106 1.46832V8.35975H1.60909C0.762768 8.35975 0 9.1964 0 10.1929V16.1661C0 17.1626 0.762938 17.9973 1.60909 17.9973H19.6106V24.8923C19.6106 25.8563 20.1406 26.4301 20.7045 26.4301C20.7047 26.4301 20.6842 26.4301 20.6842 26.4301C20.9441 26.4301 21.1989 26.2904 21.4397 26.0914L35.4883 14.481C35.8657 14.1698 36.0796 13.6935 36.0797 13.1895C36.0799 12.6858 35.8611 12.2093 35.4836 11.8979Z" fill="#27569C"/>
</svg>
